<svg width="41" height="32" viewBox="0 0 41 32" fill="none" xmlns="http://www.w3.org/2000/svg">
<g clip-path="url(#clip0_53_227)">
<path d="M9.71588 22.3301C7.13718 21.8869 4.58628 20.77 2.57841 18.4319C12.86 16.3402 17.4662 19.5596 19.1579 21.3286L19.4229 21.6058L17.8766 21.9559C15.7465 22.4383 12.7255 22.8473 9.71588 22.3301ZM20.7025 21.2072C21.568 19.9585 22.2441 18.6279 22.7466 17.2128L22.9758 17.7117L23.4454 14.8427L23.5311 14.5287L23.4962 14.5319L23.5047 14.4803C23.5962 13.9213 23.6869 13.0687 23.7535 12.3726C23.7873 12.0195 23.8156 11.6979 23.8356 11.461C23.8456 11.3426 23.8535 11.2445 23.859 11.1737L23.8599 11.162C23.8633 11.1202 23.8702 11.0329 23.8702 10.9812V10.3079L23.2469 10.0549L23.2467 10.0548L23.2466 10.0548L23.2462 10.0547L23.2429 10.0533L23.2237 10.0453C23.2059 10.0379 23.178 10.0261 23.141 10.0101C23.0669 9.97809 22.9565 9.92935 22.8169 9.86472C22.5374 9.73528 22.1432 9.54315 21.6914 9.29539C20.7778 8.79426 19.6736 8.0898 18.8012 7.24493C17.9129 6.38464 17.393 5.50461 17.3653 4.64975C17.3413 3.90761 17.6842 2.92102 19.0656 1.73343C22.026 2.38048 23.7789 3.25696 24.7825 4.13033C25.7981 5.01412 26.0778 5.91844 26.069 6.72815C26.0596 7.58915 25.7193 8.4332 25.3367 9.10124C25.1497 9.42773 24.9631 9.69394 24.8247 9.87657C24.7559 9.96748 24.6998 10.0366 24.6628 10.0809C24.6443 10.1031 24.6306 10.119 24.6226 10.1282L24.6155 10.1363L24.615 10.1369L24.6149 10.137L24.6144 10.1376L24.1447 10.657L24.3879 11.1127C24.3883 11.1194 24.3886 11.1264 24.3889 11.1337C24.3947 11.2674 24.398 11.4532 24.398 11.6625C24.398 12.088 24.3846 12.5498 24.3619 12.8051L24.1778 14.8736L24.0337 14.8567L23.8063 15.6854C23.3635 17.2998 22.6778 18.8361 21.7868 20.2645L23.1769 21.6313C23.1782 21.6335 23.1782 21.6335 23.1782 21.6336L23.1787 21.6332L23.1796 21.6327L23.193 21.6241C23.2062 21.6159 23.2276 21.6025 23.2571 21.5846C23.3161 21.5487 23.4072 21.4944 23.5284 21.4256C23.7708 21.2879 24.1332 21.0924 24.5995 20.8697C25.5333 20.4237 26.8765 19.8719 28.5027 19.4545C31.4743 18.6919 35.3494 18.3869 39.4104 19.9503C36.7134 22.9571 32.6239 23.6348 28.8579 23.4365C26.8103 23.3287 24.9303 22.9632 23.5582 22.6224C22.8738 22.4524 22.3199 22.2895 21.9398 22.1701C21.7498 22.1104 21.6034 22.0617 21.5062 22.0285C21.4575 22.0118 21.4212 21.9991 21.3978 21.9908L21.3726 21.9818L21.3674 21.9799L21.3673 21.9799L21.3669 21.9797L21.3668 21.9797L20.711 21.7392L20.2595 22.273C19.3212 23.3823 18.2403 24.4044 17.0359 25.3214C17.6711 24.7845 18.2701 24.2139 18.8297 23.6123L21.036 21.2405L20.613 21.3363L20.7025 21.2072ZM21.5875 14.6937C21.5879 14.6945 21.5884 14.6954 21.5888 14.6962C21.5567 14.6981 21.5232 14.7 21.4884 14.702C21.0919 14.724 20.5212 14.7475 19.832 14.753C18.4494 14.7638 16.6096 14.7015 14.7505 14.4148C12.8785 14.1261 11.0609 13.6205 9.67424 12.7893C8.60074 12.1459 7.82161 11.3334 7.43736 10.285C12.9919 9.18482 16.4964 10.309 18.6049 11.6441C19.7343 12.3592 20.4965 13.1556 20.9723 13.7645C21.2102 14.0689 21.3757 14.3254 21.4789 14.4995C21.5304 14.5865 21.5662 14.6527 21.5875 14.6937ZM29.4151 11.2628C31.5103 10.2734 34.6305 9.45789 38.809 10.1156C38.5312 11.4035 37.7997 12.3424 36.7888 13.0549C35.5234 13.9469 33.8126 14.4824 32.0151 14.779C30.2315 15.0732 28.4464 15.119 27.0972 15.0889C26.4252 15.074 25.8674 15.0403 25.4796 15.0107C25.2858 14.9959 25.1348 14.9821 25.0337 14.9721C24.9831 14.9672 24.9451 14.9632 24.9203 14.9605L24.8934 14.9575L24.8915 14.9573L26.1107 13.552L26.1111 13.5515L26.1111 13.5515L26.112 13.5506L26.115 13.5472C26.1202 13.5415 26.1299 13.5308 26.1442 13.5155C26.1729 13.4849 26.2198 13.4361 26.285 13.3721C26.4154 13.244 26.6185 13.0557 26.8943 12.8318C27.4464 12.3837 28.2865 11.7958 29.4151 11.2628Z" stroke="black" stroke-width="2"/>
<path d="M27.3333 13L25.625 14" stroke="black" stroke-width="2"/>
</g>
<defs>
<clipPath id="clip0_53_227">
<rect width="41" height="32" fill="white"/>
</clipPath>
</defs>
</svg>
