<svg width="45" height="36" viewBox="0 0 45 36" fill="none" xmlns="http://www.w3.org/2000/svg">
<path d="M9.41034 14.9884L8.6198 17.2033L10.7634 16.2361C13.3241 15.0806 16.2188 14.432 19.2969 14.432H26.3438C26.4534 14.432 26.5361 14.4722 26.583 14.514C26.6058 14.5343 26.6166 14.5517 26.6211 14.5611C26.625 14.5692 26.625 14.5728 26.625 14.5747C26.625 14.5766 26.625 14.5801 26.6211 14.5883C26.6166 14.5977 26.6058 14.6151 26.583 14.6354C26.5361 14.6772 26.4534 14.7174 26.3438 14.7174H25.0625H19.2969C17.899 14.7174 16.5441 14.8601 15.2329 15.1224L15.23 15.123C13.0467 15.5666 11.0196 16.3569 9.20135 17.4354L9.20015 17.4361C4.2978 20.3534 1 25.3778 1 31.1433V32.286C1 33.8927 2.41526 35 3.92188 35C5.42849 35 6.84375 33.8927 6.84375 32.286V31.1433C6.84375 28.481 7.91604 26.0254 9.73032 24.1056C11.9483 29.1919 17.4488 32.7147 23.7813 32.7147L23.8613 32.7147L23.8661 32.7147C35.0673 32.6617 44 22.8413 44 10.9039C44 7.72944 43.3732 4.70602 42.2331 1.97696L42.2331 1.97696L42.2315 1.97326C41.9228 1.24272 41.2128 0.996443 40.682 1.00004C40.1527 1.00363 39.5156 1.24463 39.157 1.83845L39.1552 1.84154C37.8434 4.03196 35.2034 5.57604 32.1094 5.57604H23.7813C17.1124 5.57604 11.3777 9.4764 9.41034 14.9884Z" stroke="black" stroke-width="2"/>
</svg>
