<svg width="329" height="261" viewBox="0 0 329 261" fill="none" xmlns="http://www.w3.org/2000/svg">
<path d="M67.6271 108.68L65.6636 114.226L71.019 111.79C91.6271 102.416 114.887 97.17 139.578 97.17H194.406C198.765 97.17 201.875 100.327 201.875 103.633C201.875 106.938 198.765 110.096 194.406 110.096H184.438H139.578C129.063 110.096 118.866 111.178 108.991 113.17L108.983 113.171C92.5711 116.533 77.3537 122.517 63.7163 130.672L63.7133 130.674C26.9297 152.741 2.5 190.529 2.5 233.593V242.556C2.5 251.63 10.5427 258.5 19.9531 258.5C29.3636 258.5 37.4062 251.63 37.4062 242.556V233.593C37.4062 208.405 48.7372 185.573 67.1843 168.963C81.2124 210.544 124.061 240.574 174.469 240.574L175.092 240.574L175.104 240.574C258.983 240.175 326.5 165.916 326.5 74.8398C326.5 50.649 321.763 27.6366 313.163 6.88591L313.159 6.87671C311.843 3.73595 308.729 2.48156 306 2.50022C303.278 2.51883 300.248 3.77712 298.616 6.50251L298.611 6.51022C287.378 25.4204 265.047 38.3933 239.266 38.3933H174.469C124.548 38.3933 82.0967 67.81 67.6271 108.68Z" stroke="black" stroke-opacity="0.1" stroke-width="5"/>
</svg>
